#!OML:ASF F:\VICON\USERDATA\INSTALL\rory3\rory3.ASF
:FULLY-SPECIFIED
:DEGREES
67
root -0.5232894517278114 17.135537330656067 37.040684592580426 6.137107893540469 -4.043986557991613 -6.949833826364911
lfemur -37.45127549787395 -3.563199059357205 -9.89942346190817
ltibia 37.75406505214726
lfoot 1.422527167497868 0.8038120805380355
ltoes -10.078262542054349
rfemur 8.832020217968157 4.6366711724523135 38.09652355726725
rtibia 41.018453882990656
rfoot -16.586296565324666 -6.6217606170533605
rtoes -0.855320919454885
lowerback 14.034194678259102 2.8074008554580385 7.288052513801678
upperback -1.1356547113011117 5.074819762839585 2.788394486859163
thorax -9.091770273873754 2.133332340933086 -3.109347968735056
lowerneck -21.32943549584678 -3.326715742386309 -1.8107801062255606
upperneck 12.05177180282854 -4.741789163279815 3.1724291506195312
head 7.321747681523275 -1.9170742291501695 0.76242380079132
lclavicle -8.269934640063526e-16 2.43756839103217e-15
lhumerus -62.11939382346423 -7.313001467702875 96.50777549320975
lradius 99.68117612739086
lwrist 32.139467039815756
lhand -25.87121845026119 1.171738220523645
lfingers 7.12502
lthumb 0.6702044380410381 31.143862064235073
rclavicle -8.269934640063526e-16 2.43756839103217e-15
rhumerus -35.37426582004558 16.762025339023204 -100.61941342271098
rradius 116.56513946637406
rwrist -13.677218946124047
rhand -17.4259163922695 40.72882147939831
rfingers 7.12502
rthumb 8.82405558690991 11.04854195267692
68
root -0.44477114431740367 16.84785752887052 37.294608507065114 6.418812353247779 -4.390906213634218 -6.775289416717975
lfemur -37.071175165579795 -4.699483898709138 -10.043421089006523
ltibia 31.95628995081764
lfoot 2.4828899750211697 -0.015579130192695523
ltoes -9.051125482207881
rfemur 13.38252769458023 4.675404479753848 37.569581134580915
rtibia 43.27619267204316
rfoot -15.642173003907994 -4.902975248585012
rtoes -9.540248018779778
lowerback 13.525775959780363 3.0341119579166063 7.114564072842735
upperback -1.2203544314117585 5.348384099112662 2.592211230643702
thorax -8.970014437294882 2.2585526995450005 -3.160648585669295
lowerneck -21.34648957398587 -3.6003191743189706 -1.7160142374207663
upperneck 12.062843340479565 -5.197108240410588 3.2604952524498865
head 7.334005326948664 -2.107176345739065 0.7416966612386339
lclavicle -7.393854079721646e-16 2.5012918201826163e-15
lhumerus -64.44577295182363 -4.8839390390201824 94.83211384697098
lradius 95.61974535986441
lwrist 30.185427339259405
lhand -25.271852881550455 2.1262936525387186
lfingers 7.12502
lthumb 1.2490579865286828 32.09786427655659
rclavicle -7.393854079721646e-16 2.5012918201826163e-15
rhumerus -33.90297065175287 16.269698788396116 -100.38588479321899
rradius 117.01503951148379
rwrist -13.449207888840656
rhand -17.60022585649308 40.88902595489235
rfingers 7.12502
rthumb 8.65573829811232 11.1865721077505
69
root -0.35537247374485936 16.688272497248033 37.89000792848714 5.979032073561996 -4.299723927813921 -6.27116289878074
lfemur -36.81197304738653 -3.965407692577623 -11.47224299583869
ltibia 33.78599989784745
lfoot 4.160994698939993 -2.4286713106256785
ltoes -7.5866688474232085
rfemur 15.773932688648795 4.066767763543162 36.35082975261211
rtibia 49.50460963358706
rfoot -9.695881661053651 -1.857008310658765
rtoes -15.534905964216978
lowerback 13.158236771646651 3.143497105016005 6.613821969698695
upperback -1.2656414401283773 5.4160439694864575 2.258379684321541
thorax -8.8984725769851 2.2991319813952584 -3.0983087921218497
lowerneck -21.040147421812843 -4.006152568979025 -1.692186057827938
upperneck 12.314797481202833 -5.7842978155681175 3.370860583971111
head 7.3745911487285 -2.380674979111857 0.7382376993204127
lclavicle -7.953510048514007e-16 2.4608029438076686e-15
lhumerus -66.69739327785152 -2.7808403075018564 93.16032154911376
lradius 92.04103821163808
lwrist 28.181000327114326
lhand -24.48277892871538 2.69645511482908
lfingers 7.12502
lthumb 2.011106730688116 32.66731654363542
rclavicle -7.953510048514007e-16 2.4608029438076686e-15
rhumerus -34.33013604687865 15.221465548918513 -100.17343669914369
rradius 117.1309098061904
rwrist -13.07034447825417
rhand -17.7582524759879 40.893789216504544
rfingers 7.12502
rthumb 8.503230230874387 11.15399700423513
70
root -0.248484582834644 16.6947895968044 38.980048021757824 5.045783820045141 -3.9386136848307634 -5.407645448322253
lfemur -35.730898933912876 -2.407995189234896 -13.737832830925715
ltibia 40.352259737595766
lfoot 5.6802937936167694 -5.11168858049466
ltoes -5.519947460531788
rfemur 15.423121448000405 2.8371736477356766 34.5566818547236
rtibia 60.632218833000294
rfoot 1.956762522400112 1.6714674358864299
rtoes -15.179257924044009
lowerback 13.014055834508198 3.2019093369865015 5.870108113054609
upperback -1.2860806073075868 5.382320731199091 1.8115593273357244
thorax -8.900625339470263 2.2990959609804236 -2.8655915001934966
lowerneck -20.591511968164234 -4.413592940263846 -1.7162045441855722
upperneck 12.715495188385253 -6.330049519663506 3.518299677023112
head 7.441790799243512 -2.648661416891354 0.7607534186710615
lclavicle -4.738232762768198e-16 2.694009241717821e-15
lhumerus -68.44494715703144 -1.1409824323002162 91.7885586202781
lradius 89.74484122980552
lwrist 26.926046403221445
lhand -23.637451109455164 3.167988332270536
lfingers 7.12502
lthumb 2.8274544753577464 33.13560472767928
rclavicle -4.738232762768198e-16 2.694009241717821e-15
rhumerus -36.209113941466555 14.016266350040393 -99.98797951683812
rradius 117.1058260147652
rwrist -12.663426968998834
rhand -17.75746482096485 40.85534227065598
rfingers 7.12502
rthumb 8.504037853590104 11.092072475953938
71
root -0.12875249865908256 16.84651575755108 40.34737988347468 3.890127988461425 -3.6621845832025133 -4.290938562808055
lfemur -33.53146454476124 -1.053865667537793 -16.499660202079273
ltibia 47.246945837442425
lfoot 5.333215956850973 -6.866289742038587
ltoes -3.349673010287546
rfemur 11.342277500996069 1.2507167177108485 32.254257434599204
rtibia 75.77242706197305
rfoot 17.31946185480129 3.9003848873076405
rtoes -6.474347039173836
lowerback 13.262758646838881 3.2184823779675376 4.816306014119827
upperback -1.2559099384920362 5.260877193421026 1.2654842957388484
thorax -9.0259559517816 2.2646022020086947 -2.476290322792343
lowerneck -20.213464061449287 -4.583890821325986 -1.782866929378491
upperneck 13.072307647819372 -6.558266742383145 3.6597613295809017
head 7.507683258750426 -2.7555296637600666 0.8051974908469589
lclavicle -1.7837366669850066e-16 2.9082507489400026e-15
lhumerus -69.36707856183023 -0.6006933473402576 91.18321662214409
lradius 89.38157685536387
lwrist 27.19219127491707
lhand -23.252844417866577 3.541374699248303
lfingers 7.12502
lthumb 3.1988450026435915 33.50283599859989
rclavicle -1.7837366669850066e-16 2.9082507489400026e-15
rhumerus -38.97615928122416 12.926645317195089 -99.8115125106837
rradius 116.89247991257368
rwrist -12.249041983626844
rhand -17.503587349994202 40.78447359112751
rfingers 7.12502
rthumb 8.749064735666517 11.02752784112732
72
root -0.03205020645156503 17.076574880719026 41.37087058507191 2.7380554138166975 -3.704524503157842 -3.166571150931674
lfemur -30.44499056045666 -0.4492762085527741 -19.349350114806715
ltibia 51.037562987890006
lfoot 2.3403408227197575 -7.08093040672043
ltoes -1.8623012839359863
rfemur 3.5850520934723242 -0.6320197480591556 29.777278313128974
rtibia 92.62620358526172
rfoot 30.686793801054208 3.126291853769138
rtoes 7.49755449645053
lowerback 13.921943395547718 3.1586895573676546 3.516539294633061
upperback -1.0734293734574083 5.013677221615289 0.6990106834479062
thorax -9.23276899948255 2.1781961141415214 -2.0120329221215765
lowerneck -20.046622042990176 -4.357158013274661 -1.882727001739815
upperneck 13.125055355703354 -6.28108551614767 3.732409476220563
head 7.516899163855247 -2.599744198014651 0.8601101043114011
lclavicle -4.2558843648694006e-16 2.7289153706371592e-15
lhumerus -69.31205688848846 -1.434060677408798 91.60614434455665
lradius 90.6824577704435
lwrist 28.896188734278763
lhand -23.81747349869127 3.2773131896226824
lfingers 7.12502
lthumb 2.653535230572041 33.2348079751029
rclavicle -4.2558843648694006e-16 2.7289153706371592e-15
rhumerus -41.68447018585605 11.994447174381323 -99.6611559748441
rradius 116.24186089311193
rwrist -11.716374698787448
rhand -17.077203146400905 40.63961788681413
rfingers 7.12502
rthumb 9.16055335704532 10.90184776053675
